<svg width="429" height="67.043" viewBox="0 0 350 54.697" class="looka-1j8o68f" xmlns="http://www.w3.org/2000/svg"><path d="M17.64 8.742c-.697 0-1.161.464-1.161 1.16v17.176h8.278c3.868 0 4.951-1.47 5.648-4.72h2.63a72.066 72.066 0 000 12.92h-2.63c-.697-3.171-1.703-4.873-5.648-4.873h-8.278v17.252c0 1.934 1.315 2.553 5.57 2.862v2.94c-7.35-.232-14.7-.232-22.049 0v-2.94c4.255-.309 5.57-.928 5.57-2.862V11.14c0-1.935-1.315-2.476-5.57-2.786v-2.94h34.04c1.006 0 1.161.233 1.316 1.393l1.238 9.207h-3.327l-.928-1.625c-2.321-4.023-3.869-5.648-8.201-5.648h-6.499zm49.513 5.184c3.79 0 6.499 2.166 6.499 5.26 0 3.25-2.553 4.797-4.642 4.797-3.482 0-4.1-2.708-6.886-2.708-4.642 0-5.88 5.648-6.421 7.66v18.722c0 1.934 2.089 2.553 4.874 2.862v2.94a288.405 288.405 0 00-20.038 0v-2.94c2.63-.309 4.72-.928 4.72-2.862v-22.9c0-2.863-1.857-3.482-4.797-3.017V18.8c7.66-1.548 11.063-5.106 13.075-5.106 1.624 0 2.398 1.083 2.166 2.94l-1.16 7.968c2.785-7.195 6.653-10.676 12.61-10.676zm41.158 29.863c0 2.862 1.857 3.481 4.874 2.94v3.249c-7.504 1.857-11.063 4.487-12.997 4.487-1.702 0-2.476-.928-2.321-2.862l.464-5.725c-1.625 4.023-4.951 8.587-11.914 8.587-5.88 0-11.605-2.94-11.605-9.903 0-7.427 5.416-11.991 23.055-15.627l-.077-4.72c-.078-5.57-.851-7.504-3.637-7.504-10.444 0-4.177 11.914-12.61 11.914-3.017 0-4.41-1.702-4.41-4.1 0-5.803 7.66-10.522 17.562-10.522 8.51 0 13.616 2.012 13.616 11.218v18.568zM90.363 49.9c4.487 0 6.885-5.88 7.504-8.588v-9.67C86.417 34.04 85.41 40.461 85.41 43.71c0 3.636 1.857 6.19 4.952 6.19zm64.832-2.244c0 1.934 2.088 2.553 4.874 2.862v2.94a290.636 290.636 0 00-20.115 0v-2.94c2.707-.232 4.796-.928 4.796-2.862V27.85c0-5.492-.464-9.206-4.332-9.206-4.874 0-8.897 6.344-9.67 8.123v20.889c0 1.934 2.088 2.63 4.873 2.862v2.94a290.636 290.636 0 00-20.115 0v-2.94c2.708-.309 4.797-.928 4.797-2.862V24.679c0-2.862-1.857-3.48-4.797-3.017v-2.94c7.66-1.547 11.063-5.028 13.075-5.028 1.625 0 2.398 1.083 2.166 2.94l-.696 6.189c1.78-2.708 6.189-8.82 13.539-8.82 6.034 0 11.605 2.553 11.605 13.462v20.192zm39.146-2.553c3.25 4.255 6.267 6.344 9.284 6.653l-2.63 2.94c-4.874 0-10.29-.619-15.087-6.73l-9.051-11.45v11.14c0 1.934 2.089 2.63 4.874 2.862v2.94c-6.731-.232-13.307-.31-20.038 0v-2.94c2.63-.309 4.72-.928 4.72-2.862v-36.67c0-2.863-1.857-3.482-4.797-3.017v-2.94C169.275 3.48 172.679 0 174.768 0c1.547 0 2.089.851 2.089 2.63v29.4c4.487-3.328 7.891-7.196 10.444-10.91 1.083-1.624-.155-2.94-3.327-3.249V14.7c5.725.232 11.373.232 17.098 0v3.172c-3.017.31-4.564 1.238-7.118 3.404l-10.676 9.207zm41.7-2.398c0 6.885-6.808 11.76-12.997 11.76-5.338 0-8.588-2.786-10.6-2.786-.928 0-1.47.541-1.547 1.702h-3.017l-.928-10.754h1.624c1.161 0 1.935.232 2.321 1.393 1.316 4.177 6.731 7.582 10.909 7.582 3.327 0 5.415-2.167 5.415-5.107 0-3.868-3.326-5.57-8.045-7.813-5.184-2.476-12.456-6.035-12.456-13.54 0-6.575 5.493-11.063 12.378-11.063 5.338 0 7.04 2.167 8.974 2.167 1.084 0 1.625-.62 1.857-1.548h3.018l.696 10.6h-1.548c-1.16 0-1.934-.31-2.398-1.47-1.857-4.488-5.493-6.963-9.052-6.963-3.172 0-5.415 2.166-5.415 5.106 0 3.404 2.785 5.106 6.885 6.963 4.72 2.166 13.926 5.802 13.926 13.77zm26.072 8.587c-1.702 1.47-4.642 2.708-7.968 2.708-6.654 0-10.909-3.482-10.909-11.605v-24.37h-3.095c-.696 0-1.005-.387-1.005-1.083v-1.16c0-.697.31-1.084 1.005-1.084 5.725 0 8.046-4.023 8.82-10.521h4.72v10.521h7.426c.697 0 1.006.387 1.006 1.083v1.161c0 .696-.31 1.083-1.006 1.083h-7.427v25.84c0 3.404.542 6.19 3.714 6.19 1.857 0 3.636-1.084 4.72-2.244v3.481zm21.043-37.213c8.82 0 18.8 6.19 18.8 19.651 0 13.771-9.98 20.502-18.722 20.502-8.82 0-18.8-6.73-18.8-19.883 0-14.08 9.98-20.27 18.722-20.27zm7.582 22.359c0-11.682-3.326-19.264-8.587-19.264-4.333 0-6.499 5.184-6.499 14.622 0 11.605 3.327 19.341 8.588 19.341 4.41 0 6.498-5.26 6.498-14.699zm54.388 11.218c0 1.934 2.089 2.553 4.874 2.862v2.94a290.636 290.636 0 00-20.115 0v-2.94c2.708-.232 4.797-.928 4.797-2.862V27.85c0-5.492-.465-9.206-4.333-9.206-4.874 0-8.897 6.344-9.67 8.123v20.889c0 1.934 2.088 2.63 4.874 2.862v2.94a290.636 290.636 0 00-20.115 0v-2.94c2.707-.309 4.796-.928 4.796-2.862V24.679c0-2.862-1.856-3.48-4.796-3.017v-2.94c7.659-1.547 11.063-5.028 13.074-5.028 1.625 0 2.399 1.083 2.167 2.94l-.697 6.189c1.78-2.708 6.19-8.82 13.54-8.82 6.034 0 11.604 2.553 11.604 13.462v20.192z" fill="#302939"/></svg>