<svg width="110" height="28" viewBox="0 0 110 28" fill="none" xmlns="http://www.w3.org/2000/svg">
<path d="M1.2052 25.2156H8.67236V2.05949H1.2052V25.2156ZM11.9184 25.2156H18.8987V12.7109H19.1582L27.5014 25.2156H35.2935V2.05949H28.3132V14.597H28.0858L19.7106 2.05949H11.9184V25.2156ZM49.9363 25.7117C56.819 25.7117 62.1435 21.2459 62.1435 13.6049C62.1435 5.96386 56.819 1.56345 49.9363 1.56345C43.0536 1.56345 37.7291 6.29361 37.7291 13.6049C37.7291 20.9161 43.0536 25.7117 49.9363 25.7117ZM68.5059 25.2156H80.3559L86.3947 2.05949H78.8299L74.772 18.9306H74.1554L70.1296 2.05949H62.4671L68.5059 25.2156ZM84.7709 25.2156H92.206L93.082 21.5771H100.29L101.166 25.2156H108.601L102.887 2.05949H90.4846L84.7709 25.2156ZM96.296 8.0134H97.0423L98.9255 15.8861H94.4128L96.296 8.0134ZM49.8345 6.24528L55.5217 10.0487V19.5844H44.1473V10.0487L49.8345 6.24528Z" fill="#65A67D"/>
</svg>
